<?xml version="1.0" encoding="utf-8"?>
<!-- Generator: Adobe Illustrator 25.0.0, SVG Export Plug-In . SVG Version: 6.00 Build 0)  -->
<svg version="1.1"
	 id="svg2" xmlns:cc="http://creativecommons.org/ns#" xmlns:dc="http://purl.org/dc/elements/1.1/" xmlns:inkscape="http://www.inkscape.org/namespaces/inkscape" xmlns:rdf="http://www.w3.org/1999/02/22-rdf-syntax-ns#" xmlns:sodipodi="http://sodipodi.sourceforge.net/DTD/sodipodi-0.dtd" xmlns:svg="http://www.w3.org/2000/svg"
	 xmlns="http://www.w3.org/2000/svg" xmlns:xlink="http://www.w3.org/1999/xlink" x="0px" y="0px" viewBox="0 0 593.3 596.1"
	 style="enable-background:new 0 0 593.3 596.1;" xml:space="preserve">
<style type="text/css">
	.st0{fill:#F3F2F1;}
	.st1{fill:#E2E2E0;}
	.st2{fill:#AD58B2;}
	.st3{fill:#743583;}
	.st4{fill:#FFFFFF;}
	.st5{fill:#273E47;}
	.st6{fill:#33535F;}
	.st7{fill:#17282F;}
	.st8{fill:#DADBD8;}
	.st9{fill:#9B43A7;}
	.st10{fill:#FAFAF9;}
	.st11{fill:#E7E8E5;}
	.st12{fill:#5D2B68;}
	.st13{fill:#45214D;}
	.st14{fill:#311634;}
	.st15{fill:#F6879F;}
	.st16{fill:#F47089;}
	.st17{clip-path:url(#SVGID_2_);}
	.st18{fill:#EDEDEB;}
	.st19{fill:#893C9B;}
	.st20{font-family:'Montserrat-Medium';}
	.st21{font-size:34.3998px;}
</style>
<sodipodi:namedview  bordercolor="#666666" borderopacity="1" gridtolerance="10" guidetolerance="10" id="namedview4" inkscape:pageopacity="0" inkscape:pageshadow="2" inkscape:window-height="480" inkscape:window-width="640" objecttolerance="10" pagecolor="#ffffff">
	</sodipodi:namedview>
<g id="g10" transform="matrix(-1.3333333,0,0,1.3333333,593.34667,0)" inkscape:groupmode="layer" inkscape:label="ink_ext_XXXXXX">
	<g id="g12" transform="scale(0.1)">
		<path id="path14" class="st0" d="M651.7,2251.7c-868.9,501.7-868.9,1315.1,0,1816.7c868.9,501.7,2277.7,501.7,3146.7,0
			c868.9-501.7,868.9-1315.1,0-1816.7C2929.4,1750,1520.6,1750,651.7,2251.7"/>
		<path id="path16" class="st1" d="M3595.1,3172.2c-96.2,55.5-96.2,145.6,0,201.1c96.2,55.5,252.1,55.5,348.3,0
			c96.2-55.5,96.2-145.6,0-201.1C3847.2,3116.6,3691.3,3116.6,3595.1,3172.2"/>
		<path id="path18" class="st1" d="M1872.5,2510.5l1618.8,934.6c26.8,15.5,26.8,54.2,0,69.8l-951.4,549.3
			c-48.7,28.1-108.7,28.1-157.3,0L763.8,3129.5c-26.9-15.5-26.9-54.2,0-69.8l951.4-549.3C1763.8,2482.4,1823.8,2482.4,1872.5,2510.5
			"/>
		<path id="path20" class="st1" d="M2358.5,2519.6l648.1,374.2c57,32.9,57,115.2,0,148.2l-326.3,188.4c-43.9,25.4-98.1,25.4-142,0
			l-648.1-374.2c-57-32.9-57-115.2,0-148.2l326.4-188.4C2260.4,2494.2,2314.6,2494.2,2358.5,2519.6"/>
		<path id="path22" class="st2" d="M3756.3,2904.7c0,0,152.2-148.6,65.6-397.6c-48.5-139.6-209.4-242-301-251.7
			c0,0,49.7,57.3,71.6,120.7l115.4,76.7l-106.1-33.2l22.6,90.8c0,0,98.6,59.7,113.3,72.7l-106.3-27.8
			C3631.2,2555.3,3639.4,2812.3,3756.3,2904.7"/>
		<path id="path24" class="st3" d="M3748.2,2749.9c8.7-18.5,19.9-37.5,34-56.8c1.4-93.3-11.8-199.9-63.7-280.8
			c0,0,74.8,87.6,73.7,267.7c2.8-3.5,5.6-7,8.6-10.5c14.9-17.6,30.4-33.3,46.2-47.5c-3-35.4-10.8-73.8-25.1-114.9
			c-48.5-139.6-209.4-242-301-251.7c0,0,49.7,57.3,71.6,120.7l115.4,76.7l-106.1-33.2l22.6,90.8c0,0,98.6,59.7,113.3,72.7l0,0l0,0
			l-106.3-27.8c0,0,1.3,41.1,10.3,96.3c22.1,14.2,44.2,31.2,65.5,51.6C3723.3,2718.8,3736.9,2734.4,3748.2,2749.9"/>
		<path id="path26" class="st4" d="M3756.3,2904.7c0,0,78.8-311-37.8-492.4C3718.5,2412.3,3855.2,2572.4,3756.3,2904.7"/>
		<path id="path28" class="st5" d="M3582.1,2946.8l186.2-2.3v0l1,0l0.9,0v0l186.2,2.3c0,0,2.1,229.4-68.6,322.8h0
			c-19.5,24.8-65.3,42.2-118.6,42.2c-53.4,0-99.2-17.5-118.7-42.4C3580,3176,3582.1,2946.8,3582.1,2946.8"/>
		<path id="path30" class="st6" d="M3582.1,2946.8c0,55.5,83.8,100.5,187.2,100.5c103.4,0,187.2-45,187.2-100.5
			s-83.8-100.5-187.2-100.5C3665.9,2846.3,3582.1,2891.3,3582.1,2946.8"/>
		<path id="path32" class="st7" d="M3769.3,2920.2c-64.4,0-118.9,20.7-138.2,49.3c-4.8-7.1-7.5-14.7-7.5-22.6
			c0-39.7,65.2-71.9,145.6-71.9c80.4,0,145.6,32.2,145.6,71.9c0,7.9-2.7,15.5-7.5,22.6C3888.2,2940.8,3833.7,2920.2,3769.3,2920.2"
			/>
		<path id="path34" class="st8" d="M3769.3,2920.2c64.4,0,118.9,20.7,138.1,49.3c-19.2,28.6-73.8,49.3-138.1,49.3
			c-64.4,0-118.9-20.7-138.2-49.3C3650.3,2940.8,3704.8,2920.2,3769.3,2920.2"/>
		<path id="path36" class="st2" d="M3767,2981.9c0,0,72.1-2.8,134-98.6c25.5-39.5,37.8-60.3,37.8-60.3l-100.5-7.5l112.6-28.2
			l53.2-81.4l-93.5-6.9c0,0,69.6-24.4,119.4-24.7c0,0,86.2-152.3,111.5-174c0,0-198.9,1.6-340.6,169.3
			C3659,2837.1,3745.9,2986.1,3767,2981.9"/>
		<path id="path38" class="st4" d="M3767,2981.9c0,0-45.1-271.8,242.8-435.2C4009.8,2546.6,3710.9,2690.2,3767,2981.9"/>
		<path id="path40" class="st2" d="M3767,2981.9c0,0-65.3,4.3-130.2-76.3c-26.7-33.2-39.8-50.8-39.8-50.8l90-16.2l-104.2-14.8
			l-55.7-68.4l83.7-15.1c0,0-65.1-15.4-110-11.1c0,0-92.1-129.3-116.9-146.5c0,0,179.6-17.2,323.3,120.6
			C3850.7,2841.1,3786.3,2983.7,3767,2981.9"/>
		<path id="path42" class="st9" d="M3765.2,2981.9C3765.2,2981.9,3765.3,2981.9,3765.2,2981.9c1.2,0,1.7,0,1.7,0l0,0
			c0.1,0,0.3,0,0.4,0c10,0,30.8-35.9,30.8-89.1c0-52.4-20.2-121.6-91.1-189.6c-114.9-110.3-252.9-121.3-303.4-121.3
			c-12.7,0-19.8,0.7-19.8,0.7c24.8,17.2,116.9,146.5,116.9,146.5c5.6-0.6,11.5-0.8,17.5-0.8c42.6,0,92.5,11.8,92.5,11.8l0,0l0,0
			l-83.7,15.1l55.7,68.4l104.2,14.8l-90,16.2c0,0,13.1,17.6,39.8,50.8c1.8,2.2,3.5,4.3,5.3,6.3c9.3,10.9,18.5,20.1,27.6,27.9
			C3715.9,2979.6,3756.5,2981.9,3765.2,2981.9"/>
		<path id="path44" class="st4" d="M3767,2981.9c0,0,15.1-249.4-260-369.8C3506.9,2612,3790,2713.4,3767,2981.9"/>
		<path id="path46" class="st10" d="M3436,769.1v496.8l430.2,248.4v-496.8L3436,769.1"/>
		<path id="path48" class="st8" d="M3459.3,755.7l430.2,248.4v496.8l-23.3,13.4L3436,1265.9V769.1L3459.3,755.7z M3482.6,796v443
			l383.7,221.5v-443L3482.6,796"/>
		<path id="path50" class="st11" d="M3436,769.1l430.2,248.4v496.8L3436,1265.9V769.1z M3459.3,809.5v443l383.7,221.5v-443
			L3459.3,809.5"/>
		<path id="path52" class="st8" d="M3499.1,1152.3l325.5,187.9l-96.2-250.2l-66.6,79.1l-68.1-97L3499.1,1152.3"/>
		<path id="path54" class="st8" d="M3612,996.2c0,18.9,13.3,42,29.7,51.4c16.4,9.5,29.7,1.8,29.7-17.1c0-18.9-13.3-42-29.7-51.4
			C3625.3,969.6,3612,977.3,3612,996.2"/>
		<path id="path56" class="st10" d="M3292.4,150.6v395.8l342.7,197.9V348.5L3292.4,150.6"/>
		<path id="path58" class="st8" d="M3311,139.9l342.8,197.9v395.8l-18.6,10.7l-342.7-197.9V150.6L3311,139.9z M3329.5,172V525
			l305.6,176.5V348.5L3329.5,172"/>
		<path id="path60" class="st11" d="M3292.4,150.6l342.7,197.9v395.8l-342.7-197.9V150.6z M3311,182.8v352.9l305.6,176.5V359.2
			L3311,182.8"/>
		<path id="path62" class="st8" d="M3342.7,455.9L3602,605.6l-76.6-199.3l-53,63l-54.2-77.2L3342.7,455.9"/>
		<path id="path64" class="st8" d="M3432.7,331.5c0,15.1,10.6,33.4,23.7,41c13.1,7.6,23.7,1.4,23.7-13.6c0-15.1-10.6-33.4-23.7-41
			C3443.3,310.3,3432.7,316.4,3432.7,331.5"/>
		<path id="path66" class="st7" d="M2563.5,2438.5l-139.1,848.9c-2.1,12.8-13.2,22.2-26.1,22.2c-15.8,0-28.1-13.7-26.3-29.4
			l97.6-875.8L2563.5,2438.5"/>
		<path id="path68" class="st7" d="M2083.3,2152.9l-139.1,848.9c-2.1,12.8-13.2,22.2-26.1,22.2c-15.8,0-28.1-13.7-26.3-29.4
			l97.6-875.8L2083.3,2152.9"/>
		<path id="path70" class="st7" d="M2777.1,2239.9l137.3,731.5c1.9,10.6,11.1,18.2,21.9,18.2c13.5,0,24-12.1,22.1-25.5l-101.4-678
			L2777.1,2239.9"/>
		<path id="path72" class="st7" d="M2291.4,1967l136.5,727c1.9,10.6,11.1,18.2,21.9,18.2c13.5,0,24-12.1,22.1-25.5l-100.6-673.6
			L2291.4,1967"/>
		<path id="path74" class="st2" d="M2331,1911.7c64.1-28.6,108-88.9,114.9-158.8c22.1-222.7,100.6-681.8,366.4-529
			c328.1,188.6,210.7,736.3,162.9,911.9c-10.8,39.6-31.4,75.8-60.3,104.9c-59.3,59.7-182,162.5-390.7,250.1
			c-25.6,10.7-54.1,12.4-80.8,4.8c-103.7-29.5-374.6-120.3-509.7-293c-16-20.4-12.5-49.9,7.8-66
			C1996.3,2093.2,2119.9,2005.8,2331,1911.7"/>
		<path id="path76" class="st12" d="M2949.4,2196.6c9.2-15.3,16.7-31.7,22.3-48.8c1.3-3.9,2.5-7.9,3.6-12
			c22.3-82.2,60-246.1,60-416.4c0-193.4-48.5-395.2-222.9-495.5l0,0c-0.1-0.1-0.2-0.1-0.3-0.2c-5.7-3.3-11.3-6.1-16.8-8.9
			c-1.2-0.6-2.5-1.2-3.7-1.8c-5.6-2.6-11-5-16.4-7.1l-1.6-0.6c-5.2-1.9-10.2-3.6-15.2-5.1l-2.3-0.7c-5.4-1.5-10.7-2.7-15.9-3.7
			l-1.3-0.2c-9-1.6-17.7-2.3-26.1-2.3c-1.8,0-3.6,0-5.3,0.1l-0.6,0c-10.3,0.4-20.3,2-29.8,4.6l0,0l0,0l0,0l0,0l0,0l0,0
			c0.2-0.1,0.4-0.1,0.5-0.2c-26.1,7.1-49.5,21.9-70.3,42.6l96.1,46.6h0l0,0l0,0c41.3,7.4,86.6,24.6,126.6,78.4
			c38.3,51.4,82.8,285.4,82.8,330.5c0,2.1-0.1,3.9-0.3,5.1c-1,6.1-2.6,11.6-4.7,16.6c10.1,61.8,17.2,116.8,15.3,141.1
			c-1.9,23-35.7,50.7-78.4,76.7c-0.5,32.4-1.2,51.9-1.2,51.9s0,0.1-0.1,0.2c2.6,20.3,4.7,45.2,4.7,71.9c0,24-1.7,49.6-6.4,74.8
			L2949.4,2196.6"/>
		<path id="path78" class="st2" d="M1924,2171.3c-0.6,10.9,2.5,22.1,9.8,31.4c7.2,9.2,14.9,18.2,22.8,26.9l0,0
			c4.3,4.8,8.8,9.5,13.3,14.1l0.3,0.3c4.5,4.6,9.1,9.1,13.8,13.6l0.4,0.4c4.7,4.4,9.4,8.8,14.3,13.2l0.4,0.3
			c4.9,4.4,9.8,8.6,14.8,12.9l0.2,0.2c76.6,64.3,169.6,113.3,252.7,148.6l0.3,0.1c5.2,2.2,10.3,4.3,15.4,6.4l1.6,0.7
			c4.8,1.9,9.5,3.9,14.2,5.7l2.5,1c4.4,1.8,8.9,3.5,13.2,5.1c1,0.4,2,0.8,3,1.2c4.2,1.6,8.3,3.1,12.3,4.6c1.2,0.4,2.4,0.9,3.6,1.3
			c3.8,1.4,7.6,2.8,11.4,4.2c1.4,0.5,2.8,1,4.1,1.5c3.5,1.3,7,2.5,10.5,3.7c1.5,0.5,2.9,1,4.4,1.5c3.3,1.1,6.5,2.3,9.7,3.3
			c1.6,0.5,3.1,1.1,4.6,1.6c3,1,5.9,2,8.8,2.9c1.7,0.6,3.4,1.1,5,1.6c2.6,0.9,5.3,1.7,7.9,2.6c1.8,0.6,3.6,1.1,5.3,1.7
			c2.3,0.7,4.6,1.5,6.9,2.2c2,0.6,3.8,1.2,5.8,1.8c1.9,0.6,3.9,1.2,5.8,1.8c2.4,0.7,4.7,1.4,7,2.1c1.2,0.4,2.4,0.7,3.6,1.1
			c3.5,1,6.8,2,10,2.9c26.7,7.6,55.2,5.9,80.8-4.8c208.7-87.6,331.4-190.4,390.7-250.1c28.9-29.1,49.5-65.3,60.3-104.9
			c47.7-175.6,165.2-723.3-162.9-911.9c-5.8-3.3-11.5-6.3-17.1-9.1c-1.2-0.6-2.5-1.2-3.7-1.8c-5.6-2.6-11-5-16.4-7.1l-1.6-0.6
			c-5.2-1.9-10.2-3.6-15.2-5.1l-2.3-0.7c-5.4-1.5-10.7-2.7-15.9-3.7l-1.3-0.2c-10.9-1.9-21.3-2.6-31.5-2.2l-0.6,0
			c-10.3,0.4-20.3,2-29.8,4.6c52.4-23.2,116.4-22.1,179.9,14.4c328.1,188.6,210.6,736.3,162.9,911.9l-8.1,30.2
			c-16.3,60.9-52.3,114.8-102.4,153.1l-85.1,65.1v0c-68.9,53-166.7,114.9-299.5,170.6c-25.7,10.8-54.3,12.6-81.1,5
			c-103.6-29.5-374.7-120.2-509.8-293c-6-7.7-9.1-16.7-9.7-25.7h-0.2v-58.5L1924,2171.3"/>
		<path id="path80" class="st13" d="M2986.3,2217.9c10.9-19.9,19.4-41.1,25.3-63.2l8.1-30.2c22.3-82.2,60-246.1,60-416.4
			c0-193.4-48.5-395.2-222.9-495.5c-35.9-20.6-71.9-29.9-106-29.9c-26.1,0-51.1,5.5-73.9,15.6c9.6-2.6,19.5-4.2,29.8-4.6l0.6,0
			c1.8-0.1,3.6-0.1,5.3-0.1c8.4,0,17.2,0.8,26.1,2.3l1.3,0.2c5.2,0.9,10.5,2.2,15.9,3.7l2.3,0.7c5,1.5,10.1,3.1,15.2,5.1l1.6,0.6
			c5.4,2.1,10.9,4.5,16.4,7.1c1.2,0.6,2.4,1.2,3.7,1.8c5.5,2.7,11.1,5.6,16.8,8.9c0.1,0.1,0.2,0.1,0.4,0.2l0,0
			c174.5,100.3,223,302.1,222.9,495.5l0,0c0,170.3-37.7,334.2-60,416.4c-5.8,21.4-14.5,41.9-25.9,60.7L2986.3,2217.9"/>
		<path id="path82" class="st2" d="M1742.9,2797.9c22.4-142.8,51.1-371.2,67.6-506.3c1.1-8.9,2.6-17.7,4.5-26.3
			c16.5-75.4,65.9-139.5,132.2-179l336.6-200.4l228.5-120.2c0,0,60.8,176.2-9.8,283.9c-58.8,89.7-318.4,200.9-395.5,238.3
			c-77.1,37.4-78.8,47.6-77.2,97.7c1.6,50.1,1.7,113.9-93.2,313.7c-27.2,57.4-46.2,100.4-59.5,133.3
			C1843.9,2835.6,1794.8,2831.6,1742.9,2797.9"/>
		<path id="path84" class="st14" d="M1859.5,2833.5c6.2,0,12-0.3,17.4-0.8c10.6-26.3,24.8-59,44-100.4c4.8-10.4,10-21.4,15.5-32.9
			c3.7-7.8,7.3-15.4,10.7-22.8l-172.8-99.8c-10.6,80.1-21.6,158.7-31.4,221C1786.4,2826.1,1827.8,2833.5,1859.5,2833.5"/>
		<path id="path86" class="st15" d="M1847,2949.2c0.2,6-1.2,11.8-4.1,17c-6.3,11.5-20.6,33.2-50.6,60.2
			c-45.3,40.9-195.6,200.9-248.5,101.6c0,0,155.3-148.7,175.9-209.9c5.9-17.4,14-61.7,23.2-120.3c51.9,33.6,101,37.7,134,34.8
			C1847.8,2905.1,1846.5,2928.7,1847,2949.2"/>
		<path id="path88" class="st6" d="M1685.4,2939.5l4.3-12.9c3.4-10,14.1-15.5,24.2-12.4l62.9,19.4c8.1,2.5,13.6,10,13.6,18.5v6.3
			c0,6.2,5,11.2,11.2,11.2c13.3,0,26.2-4.6,36.5-13.1l8.8-7.2v-22c11.6,7.5,18.3,20.6,17.6,34.4c-0.8,14.9-1.5,33.1-1,40.4
			c1,13.1,13.4,68.2-1.4,84.4c-14.7,16.3-47.7,18.2-88.5,13.8c-40.8-4.4-85.4,35.8-123.3,50.6c-37.8,14.9-194.4,46.9-194-53.2
			c0.1-25.5,25.3-35.9,50.1-44.9c24.8-9,114.1-40.5,137-59.4c10.5-8.6,19.2-17.8,25.5-25.2C1676.4,2959.7,1681.9,2950,1685.4,2939.5
			"/>
		<path id="path90" class="st7" d="M1650.5,3150.9c37.8-14.9,82.5-55,123.3-50.6c40.8,4.4,73.8,2.5,88.5-13.8
			c4.4-4.9,6.4-13.4,7-23.1c0.8,15.4-0.4,30.2-7,37.4c-14.7,16.3-47.7,18.2-88.5,13.8c-40.8-4.4-85.4,35.8-123.3,50.6
			c-37.8,14.9-194.4,46.9-194-53.2c0-1.6,0.4-2.9,0.6-4.3C1467,3195.5,1614,3165.2,1650.5,3150.9"/>
		<path id="path92" class="st2" d="M2048.7,2971.4c22.4-142.8,51.1-371.2,67.6-506.3c8.6-71,43.7-136.1,98.2-182.4l403.9-343.4
			l215.9-3.7c0,0,44.5,179.9-26.1,287.6c-58.8,89.7-318.4,200.9-395.5,238.3c-77.1,37.4-78.8,47.7-77.2,97.7
			c1.6,50.1,1.7,113.9-93.2,313.7c-27.2,57.4-46.2,100.4-59.5,133.3C2149.7,3009.1,2100.6,3005,2048.7,2971.4"/>
		<path id="path94" class="st14" d="M2165.3,3007c6.2,0,12-0.3,17.4-0.8c13.3-32.9,32.2-75.9,59.5-133.3c3.3-6.9,6.5-13.7,9.6-20.4
			l-172-99.3c-10.5,79.1-21.3,156.6-31,218.2C2092.1,2999.5,2133.6,3007,2165.3,3007 M2841.7,2134.4c4.7-25.2,6.4-50.7,6.4-74.8
			c0-26.7-2.1-51.6-4.7-71.9c-1.6,3.3-28,53.6-132.8,71L2841.7,2134.4"/>
		<path id="path96" class="st15" d="M2152.9,3109.8c0.1,6,4.1,23.7-4.2,29.9c-10.6,7.8-20.6,33.2-50.6,60.2
			c-45.3,40.9-93.2-47.2-72.6-108.3c5.9-17.4,14-61.7,23.2-120.2c51.9,33.6,101,37.7,134,34.8
			C2153.6,3078.5,2152.4,3089.3,2152.9,3109.8"/>
		<path id="path98" class="st15" d="M2419.9,1190.4c-63.8-10-125.9,27.3-146.1,88.6c-12.2,36.8-23.1,81.8-27.3,132.1
			c-11.7,138.5-14.9,207.8-14.9,207.8l-139.1,63.1c0,0,75.1,3.6,70,109.7l173.3-43.7L2419.9,1190.4"/>
		<path id="path100" class="st2" d="M2226.4,1535.2c20.5-150.1,28.6-228.5,46.2-265.7c27.6-58.4,83.4-89,147.2-79l-52.4,412
			l-6.8-0.7c-46.4-4.5-90.1-23.9-124.7-55.1L2226.4,1535.2"/>
		<path id="path102" class="st9" d="M2321.3,1594.1c3.5-117.1,9.5-243.8,19.9-297.8c13.8-71.7,48.5-96.9,78.5-104.6l0.2-1.4
			c-8-1.2-15.8-1.9-23.5-1.9c-53.8,0-99.6,29.8-123.7,80.9c-17.6,37.3-25.7,115.7-46.2,265.7l9.6,11.4
			C2260.6,1568.8,2289.8,1585,2321.3,1594.1"/>
		<path id="path104" class="st16" d="M2231.5,1618.9c0,0,26.5,7.8,41.1,25.2c0,0-16.8-31.9-40.2-41.8L2231.5,1618.9"/>
		<path id="path106" class="st2" d="M2754,1311.8l-155.6-75.4l-128.2-44.2c0,0-102.7-32.8-129,104.1
			c-21.6,112.5-24.4,540.1-24.4,540.1l2.3,46.8c0,0,59.3,166.1,271.2,179.9c211.9,13.7,253.2-75.6,253.2-75.6
			S2864.9,1421.8,2754,1311.8"/>
		<path id="path108" class="st7" d="M2263.7,854.8c0,0-48.1,123.3,18.3,177.6c66.4,54.3,43.4-163.8,43.4-163.8L2263.7,854.8"/>
		<path id="path110" class="st6" d="M2380.9,4029.3c15.1,8.7,39.5,8.7,54.6,0c15.1-8.7,15.1-22.8,0-31.5c-15.1-8.7-39.5-8.7-54.6,0
			C2365.8,4006.5,2365.8,4020.6,2380.9,4029.3"/>
		<path id="path112" class="st5" d="M2369.5,3083.1h77.2v929.6h-77.2V3083.1"/>
		<path id="path114" class="st6" d="M3259.1,3513.6c15.1,8.7,39.5,8.7,54.6,0c15.1-8.7,15.1-22.8,0-31.5c-15.1-8.7-39.5-8.7-54.6,0
			C3244,3490.8,3244,3504.9,3259.1,3513.6"/>
		<path id="path116" class="st7" d="M3247.7,2567.4h77.2V3497h-77.2V2567.4"/>
		<path id="path118" class="st6" d="M941.4,3195.3c15.1,8.7,39.5,8.7,54.6,0c15.1-8.7,15.1-22.8,0-31.5c-15.1-8.7-39.5-8.7-54.6,0
			C926.3,3172.4,926.3,3186.6,941.4,3195.3"/>
		<path id="path120" class="st5" d="M930,2249.1h77.2v929.6H930V2249.1"/>
		<path id="path122" class="st6" d="M1885.4,2491.8c13.5,7.8,35.5,7.8,49,0c13.5-7.8,13.5-20.5,0-28.3c-13.5-7.8-35.5-7.8-49,0
			S1871.9,2484,1885.4,2491.8"/>
		<path id="path124" class="st6" d="M1875.2,1701.1h69.3v775.8h-69.3V1701.1"/>
		<path id="path126" class="st7" d="M3325,2413.4v184.9l-916.9,529.4v-184.9L3325,2413.4"/>
		<path id="path128" class="st5" d="M930,2089.4l1478.1,853.4v184.9L930,2274.4V2089.4"/>
		<path id="path130" class="st6" d="M1846.9,1560.1L3325,2413.4l-916.9,529.4L930,2089.4L1846.9,1560.1"/>
		<path id="path132" class="st11" d="M2588.4,2135.9L2252.2,2330l-559-323.2l336.2-198.1L2588.4,2135.9"/>
		<path id="path134" class="st8" d="M2288.4,2080.7l-126.1-72.8l79.1-45.6l126.1,72.8L2288.4,2080.7"/>
		<path id="path136" class="st8" d="M2238,2281.6l169.9-100l-332-201L2238,2281.6z"/>
		<path id="path138" class="st15" d="M2142.9,1658l-134.5,63.1c-53.9,12.6-118.8,36.7-118.8,36.7s-93.6,38.2-97.8,63.3
			s70.2,85.5,135.7,56.1c13.2-5.9,37-17.9,54.6-19.8c17.6-1.9,69.7-10.1,107.5-46.1l157-40.8
			C2246.5,1770.5,2254.3,1673.6,2142.9,1658"/>
		<path id="path140" class="st15" d="M2055.8,1845.6c-15.6,16.7-60,58.8-69.7,70.9c-9.7,12.2-32.6-19.1,7.6-65.7
			c0,0,53.4-18.5,96.9-52.8C2090.5,1798.1,2071.4,1828.9,2055.8,1845.6"/>
		<path id="path142" class="st15" d="M2598.4,1236.5h-159.7v-193.2h159.7V1236.5"/>
		<path id="path144" class="st16" d="M2438.8,1236.5c56.4-21.8,115.4-65.5,146.7-139.5v-53.7h-146.7V1236.5"/>
		<path id="path146" class="st15" d="M2385.1,788.2c0,0-145.2,17.5-111.9,265.5c15.4,114.7,46.1,172.7,134.5,162.9
			c100.2-11.1,238.7-89,217.2-285.5C2603.4,734.6,2385.1,788.2,2385.1,788.2"/>
		<path id="path148" class="st16" d="M2376.9,1009.4l5.2,85.7l-51.1-12.3L2376.9,1009.4z"/>
		<path id="path150" class="st7" d="M2452.9,1001.7c0.6,9.6-6.7,17.9-16.4,18.5c-9.6,0.6-17.9-6.7-18.5-16.4
			c-0.6-9.6,6.7-17.9,16.4-18.5C2444.1,984.7,2452.3,992,2452.9,1001.7"/>
		<path id="path152" class="st7" d="M2337.4,996.5c0.6,9.6-6.7,17.9-16.4,18.5s-17.9-6.8-18.5-16.4c-0.6-9.6,6.8-17.9,16.4-18.5
			C2328.5,979.6,2336.8,986.9,2337.4,996.5"/>
		<path id="path154" class="st7" d="M2296.5,962.6l32.9-22.4c0,0-13.9-12.8-26.5-3.8C2290.3,945.4,2296.5,962.6,2296.5,962.6"/>
		<path id="path156" class="st7" d="M2440.8,958.7l35.5,17.9c0,0,4.4-18.4-9.5-25C2452.9,944.9,2440.8,958.7,2440.8,958.7"/>
		<path id="path158" class="st16" d="M2379.7,1129.9c0,0,33.3,1,55.3-18.5c0,0,5.6,29.4-18.8,36.5
			C2391.7,1155.1,2379.7,1129.9,2379.7,1129.9"/>
		<path id="path160" class="st7" d="M2600.1,1007.4c0,0-22.4,46.4-36.1,44.8c-13.8-1.6,0-178-28.6-179.2
			c-28.6-1.1-163.6,65.9-282.9-20.6c-45.8-33.2-55-118-27.5-110c27.5,8,64.6,32.1,114.8,28.6c50.2-3.4,225.4-84.8,269,29.8
			c0,0,97.1-7.9,60.6,184.7c-9,47.8-37.7,166.5-70.9,178.2L2600.1,1007.4"/>
		<path id="path162" class="st15" d="M2592.3,1049.8c-0.4-14.5,1.9-29.1,7.9-42.4c6.7-14.9,18.4-29.9,38.9-30.4
			c44.8-1.2,50.9,41.9,50.3,57.3c-1.6,40.4-34.3,84-95.1,85.6L2592.3,1049.8"/>
		<path id="path164" class="st15" d="M2578.4,1914.3l-114.4,90.6c0,0-36.2,3.5-58,10.1s-79.3,27.7-94.5,31
			c-15.2,3.3,4.4,29.4,44.2,19.9c0,0-83.4,57.1-82.3,82.6c1.1,25.4,86.7,68.8,144.5,26.2c11.6-8.6,32.4-25.3,49.2-30.9
			c16.8-5.5,66-24.6,95.3-67.8l100-52.1C2662.4,2023.9,2690.6,1906,2578.4,1914.3"/>
		<path id="path166" class="st15" d="M2703.3,1287.2c0,0-66.8,51.8-25.8,212.4c41,160.7,62.9,299.2,62.9,299.2l-162.1,115.4
			c0,0,68.5,24.4,84,109.6c0,0,255.4-100.4,260.6-164.9c5.1-64.4-53.3-343.5-62.2-394.8C2852,1412.9,2806.6,1311.5,2703.3,1287.2"/>
		<path id="path168" class="st16" d="M2740.5,1798.9c0,0,32.8-7,61.1,0.6c0,0-25-15.5-62.5-15.5L2740.5,1798.9"/>
		<path id="path170" class="st10" d="M1615.4,1636.4l58.4,382.6l0.4,0.6l580.6,336.7l1.3-0.9l-56.7-371c-2.4-16-11.8-30.1-25.6-38.6
			l-532.6-326.6C1628.8,1611.6,1613.2,1622,1615.4,1636.4"/>
		<path id="path172" class="st8" d="M2254.8,2356.4l310.1-179.6c14.6-8.4,23.5-24,23.5-40.8L2252.2,2330L2254.8,2356.4"/>
		<path id="path174" class="st8" d="M1951.4,2005.1c0,27.3-19.2,38.4-42.9,24.7c-23.7-13.7-42.9-46.9-42.9-74.2
			c0-27.3,19.2-38.4,42.9-24.7C1932.2,1944.6,1951.4,1977.8,1951.4,2005.1"/>
		<path id="path176" class="st7" d="M2593.3,857.2c0,0,26.4-38.9,10.3-51.5C2587.6,793.1,2575,833.2,2593.3,857.2"/>
		<path id="path178" class="st7" d="M2588.9,865.4c0,0,46.7-5.8,45.6-26.2C2633.4,818.8,2594.9,835.7,2588.9,865.4"/>
		<path id="path180" class="st15" d="M2598.4,1236.5c0,0-34.2,90.2-113.3,78.8c-79-11.5-46.4-78.8-46.4-78.8H2598.4"/>
		<path id="path182" class="st2" d="M2703.3,1287.2c0,0-52,24.9-44,129.6c8,104.6,49.2,315.4,49.2,315.4s186.2,75.3,203.9-30.9
			c4.6-27.5-42.4-281.8-82.5-335.6C2789.8,1311.8,2744.5,1294.6,2703.3,1287.2"/>
		<g id="g184">
			<g>
				<defs>
					<path id="SVGID_1_" d="M2829.1,1758.1c39.9,0,76-12.9,83.3-56.8c0.2-1.2,0.3-3,0.3-5.1c0-45.1-44.5-279.1-82.8-330.5
						c-40.1-53.8-85.4-71-126.7-78.4c0,0-44.9,21.5-44.9,108.4c0,6.7,0.3,13.7,0.8,21.2c8,104.6,49.2,315.4,49.2,315.4
						S2772.5,1758.1,2829.1,1758.1"/>
				</defs>
				<clipPath id="SVGID_2_">
					<use xlink:href="#SVGID_1_"  style="overflow:visible;"/>
				</clipPath>
				<g id="g186" class="st17">
					<path id="path192" class="st9" d="M2912.7,1758.1h-254.3v-470.9h254.3V1758.1z"/>
				</g>
			</g>
		</g>
		<path id="path194" class="st6" d="M2148.7,3114.9c0,0-11.6,18.2-30.4,21.2c-11.2,1.8,11.6-27.5-15.7-39.3
			c-27.2-11.7-89.5-27.9-95.1-4.5l-6.9,29.2c-6.5,27.6-19.7,53.2-38.4,74.5c-18.7,21.3-42.9,46.7-61.6,58.8
			c-35.6,23-94,78.4-19,125.7s167.4,7.4,185.4-46.4c18.1-53.8,37.2-69.3,46.8-78.2c9.6-8.9,32.1-22.9,40.6-59.2
			c5.5-23.5,8.6-53.7,10.1-72c0.8-10-3.9-19.5-12.4-24.9L2148.7,3114.9"/>
		<path id="path196" class="st7" d="M1881.6,3380.6c75.1,47.2,167.4,7.4,185.4-46.4c18.1-53.8,37.2-69.3,46.8-78.2
			c8.6-8,27.5-20.2,37.4-48.7c-0.1,1.5-0.3,3-0.4,4.4c-2.9,46.5-31.4,57.4-41,66.4c-9.6,8.9-25.4,23.7-43.5,77.4
			c-18.1,53.8-113.3,87.3-188.3,40c-36.4-22.9-41.4-47.8-32.8-69.9C1843.9,3343.7,1853.2,3362.7,1881.6,3380.6"/>
		<path id="path198" class="st2" d="M2242.4,2666.8l239.2,138.1l301.9-174.3l-239.7-138.4c-6.3-3.7-14.2-3.7-20.5,0l-280.9,162.2
			C2237.7,2657.2,2237.7,2664.1,2242.4,2666.8"/>
		<path id="path200" class="st14" d="M2481.7,2804.9l301.9-174.3l-20.9-12.1v9.5l-281,162.2L2259,2661.7c-2.2-1.3-3.3-3.4-3.3-5.6
			l0,0v0c0-0.1,0-0.2,0-0.3v-9.1l-13.2,7.6c-2.4,1.4-3.6,3.8-3.6,6.2c0,2.4,1.2,4.8,3.6,6.2L2481.7,2804.9"/>
		<path id="path202" class="st4" d="M2259,2661.7l222.7,128.6l281-162.3l-223.1-128.8c-5.9-3.4-13.2-3.4-19.1,0l-261.5,151
			C2254.6,2652.8,2254.6,2659.2,2259,2661.7"/>
		<path id="path204" class="st4" d="M2481.7,2790.3v-25.1l-226-130.5v21.4L2481.7,2790.3"/>
		<path id="path206" class="st8" d="M2481.7,2790.3v-25.1l281-162.3v25.1L2481.7,2790.3"/>
		<path id="path208" class="st2" d="M2242.4,2627.1l239.2,138.1l301.9-174.3l-239.7-138.4c-6.3-3.7-14.2-3.7-20.5,0l-280.9,162.2
			C2237.7,2617.4,2237.7,2624.3,2242.4,2627.1"/>
		<path id="path210" class="st12" d="M2481.7,2765.2L2481.7,2765.2l281-162.3l20.9-12.1l-239.7-138.4c-3.2-1.8-6.7-2.8-10.3-2.8
			s-7.1,0.9-10.3,2.8l-280.9,162.2c-2.4,1.4-3.6,3.8-3.6,6.2c0,2.4,1.2,4.8,3.6,6.2L2481.7,2765.2"/>
		<path id="path212" class="st4" d="M2512.9,2786.9c1.4,0.6,3.1,0.5,4.5-0.3c1.8-0.9,2.9-2.7,2.9-4.8v-22.7
			c0-10.4-5.6-20.2-14.5-25.5l-0.8-0.5c-1.2-0.7-2.3-0.2-2.7,0c-0.4,0.2-1.4,0.9-1.4,2.3c0,2.6-2.1,4.7-4.7,4.7
			c-2.6,0-4.7-2.1-4.7-4.7c0-4.4,2.3-8.3,6.1-10.5c3.8-2.2,8.3-2.1,12.1,0.1l0.9,0.5c11.8,7,19.1,19.9,19.1,33.6v22.7
			c0,5.5-3,10.5-7.8,13.1c-2.2,1.2-4.6,1.8-7,1.8c-2.9,0-5.8-0.8-8.2-2.5c-1-0.6-1.5-1.6-1.8-2.6L2512.9,2786.9"/>
		<path id="path214" class="st4" d="M2557.6,2761.1c1.4,0.6,3.1,0.5,4.5-0.3c1.8-1,2.9-2.7,2.9-4.8v-22.7c0-10.4-5.6-20.2-14.5-25.5
			l-0.9-0.5c-1.2-0.7-2.3-0.2-2.7,0c-0.4,0.2-1.3,0.9-1.3,2.3c0,2.6-2.1,4.7-4.7,4.7c-2.6,0-4.7-2.1-4.7-4.7c0-4.4,2.3-8.3,6.1-10.5
			c3.8-2.2,8.4-2.1,12.1,0.1l0.9,0.5c11.8,7,19.1,19.9,19.1,33.6v22.7c0,5.5-3,10.5-7.8,13.1c-2.2,1.2-4.6,1.8-7,1.8
			c-2.9,0-5.8-0.8-8.2-2.5c-0.9-0.6-1.5-1.6-1.8-2.6L2557.6,2761.1"/>
		<path id="path216" class="st4" d="M2602.3,2735.3c1.4,0.6,3.1,0.5,4.5-0.3c1.8-1,2.9-2.7,2.9-4.8v-22.7c0-10.4-5.6-20.2-14.5-25.5
			l-0.9-0.5c-1.2-0.7-2.3-0.2-2.7,0c-0.4,0.2-1.4,0.9-1.4,2.3c0,2.6-2.1,4.7-4.7,4.7c-2.6,0-4.7-2.1-4.7-4.7c0-4.4,2.3-8.3,6.1-10.5
			c3.8-2.2,8.4-2.1,12.1,0.1l0.8,0.5c11.8,7,19.1,19.9,19.1,33.6v22.7c0,5.5-3,10.5-7.8,13.1c-2.2,1.2-4.6,1.8-7,1.8
			c-2.9,0-5.8-0.8-8.2-2.5c-0.9-0.6-1.5-1.6-1.8-2.6L2602.3,2735.3"/>
		<path id="path218" class="st4" d="M2647,2709.5c1.4,0.6,3.1,0.5,4.5-0.3c1.8-1,2.9-2.7,2.9-4.8v-22.7c0-10.4-5.6-20.2-14.5-25.5
			l-0.8-0.5c-1.2-0.7-2.3-0.2-2.7,0c-0.4,0.2-1.4,0.9-1.4,2.3c0,2.6-2.1,4.7-4.7,4.7c-2.6,0-4.7-2.1-4.7-4.7c0-4.4,2.3-8.3,6.1-10.5
			c3.8-2.2,8.3-2.1,12.1,0.1l0.9,0.5c11.8,7,19.1,19.8,19.1,33.6v22.7c0,5.5-3,10.5-7.8,13.1c-2.2,1.2-4.6,1.8-7,1.8
			c-2.9,0-5.8-0.8-8.2-2.5c-1-0.6-1.5-1.6-1.8-2.6L2647,2709.5"/>
		<path id="path220" class="st4" d="M2691.7,2683.7c1.4,0.6,3.1,0.5,4.5-0.2c1.8-1,2.9-2.7,2.9-4.8V2656c0-10.4-5.6-20.2-14.5-25.5
			l-0.8-0.5c-1.2-0.7-2.3-0.3-2.7,0c-0.4,0.2-1.4,0.9-1.4,2.3c0,2.6-2.1,4.7-4.7,4.7c-2.6,0-4.7-2.1-4.7-4.7c0-4.4,2.3-8.3,6.1-10.5
			c3.8-2.2,8.4-2.1,12.1,0.1l0.9,0.5c11.8,7,19.1,19.9,19.1,33.6v22.7c0,5.5-3,10.5-7.8,13.1c-2.2,1.2-4.6,1.8-7,1.8
			c-2.9,0-5.8-0.8-8.2-2.5c-0.9-0.6-1.5-1.6-1.8-2.6L2691.7,2683.7"/>
		<path id="path222" class="st4" d="M2736.4,2657.9c1.4,0.6,3.1,0.5,4.5-0.2c1.8-1,2.9-2.7,2.9-4.8v-22.7c0-10.4-5.6-20.2-14.5-25.5
			l-0.8-0.5c-1.2-0.7-2.3-0.3-2.7,0c-0.4,0.2-1.4,0.9-1.4,2.3c0,2.6-2.1,4.7-4.7,4.7c-2.6,0-4.7-2.1-4.7-4.7c0-4.4,2.3-8.3,6.1-10.5
			c3.8-2.2,8.4-2.1,12.1,0.1l0.9,0.5c11.8,7,19.1,19.8,19.1,33.6v22.7c0,5.5-3,10.5-7.8,13.1c-2.2,1.2-4.6,1.8-7,1.8
			c-2.9,0-5.8-0.8-8.2-2.5c-0.9-0.6-1.5-1.6-1.8-2.6L2736.4,2657.9"/>
		<path id="path224" class="st1" d="M2211.6,2564.7l258.6,149.3l336.6-194.3l-258.6-149.3L2211.6,2564.7"/>
		<path id="path226" class="st10" d="M2196.7,2559.8l270.2,127.2l319.1-221.8L2515.8,2338L2196.7,2559.8"/>
		<path id="path228" class="st2" d="M2800,2162.7h219.5l-19.7,232.3h-0.1c-1.2,12.4-9.8,24.6-26.2,34c-35.2,20.3-92.4,20.3-127.6,0
			c-16.4-9.5-25-21.6-26.2-34h-0.1L2800,2162.7"/>
		<path id="path230" class="st8" d="M2786,2150v-18.4h4.3c5.4-11.7,16-22.8,31.9-32c48.3-27.9,126.7-27.9,175,0
			c15.9,9.2,26.5,20.3,31.9,32h4.3v18.6c0,18.3-12.1,36.6-36.3,50.5c-48.3,27.9-126.7,27.9-175,0
			C2798,2186.7,2785.9,2168.3,2786,2150"/>
		<path id="path232" class="st11" d="M2822.2,2183.2c48.3,27.9,126.7,27.9,175,0c48.3-27.9,48.3-73.1,0-101.1
			c-48.3-27.9-126.7-27.9-175,0S2773.9,2155.3,2822.2,2183.2"/>
		<path id="path234" class="st8" d="M2810.6,2125v-14.8h3.5c4.4-9.4,12.8-18.2,25.6-25.6c38.7-22.4,101.5-22.4,140.3,0
			c12.8,7.4,21.2,16.2,25.6,25.6h3.5v14.9c0,14.6-9.7,29.3-29.1,40.5c-38.7,22.4-101.5,22.4-140.3,0
			C2820.2,2154.4,2810.5,2139.7,2810.6,2125"/>
		<path id="path236" class="st0" d="M2839.6,2151.6c38.7,22.4,101.5,22.4,140.3,0s38.7-58.6,0-81c-38.7-22.4-101.5-22.4-140.3,0
			C2800.9,2093,2800.9,2129.2,2839.6,2151.6"/>
		<path id="path238" class="st18" d="M2855.8,2139.8c29.7,17.2,78.1,17.2,108,0c28.9-16.6,29.9-43.3,3-60.5c-1-0.7-2-1.3-3-1.9
			c-6.2-3.6-13.3-6.4-20.9-8.6c-28.4-7.9-63.6-5.1-87.1,8.6C2825.9,2094.6,2825.9,2122.6,2855.8,2139.8"/>
		<path id="path240" class="st8" d="M2963.7,2086.3c-29.8-17.2-78.2-17.2-108,0c-12.9,7.5-20.3,17-22,26.8
			c-2.2-12.7,5.1-25.9,22-35.6c29.8-17.2,78.2-17.2,108,0c16.9,9.7,24.2,22.9,22,35.6C2984,2103.3,2976.7,2093.8,2963.7,2086.3"/>
		<path id="path242" class="st8" d="M2922.9,2089.3l22.2,14.1l21.6-15.5v-8.6c-1-0.7-2-1.3-3-1.9c-6.2-3.6-13.3-6.4-20.9-8.6v6.4
			L2922.9,2089.3"/>
		<path id="path244" class="st2" d="M316.4,724.7L1561.2,6c14.3-8.2,27.1-7.6,36.2-0.1l43.1,29.8L1611.1,72v1003.9
			c0,36.8-22.4,79.5-49.9,95.4L328.8,1882.8l-2.3,39.1l-45.4-31.1c-9-6.8-14.6-20.2-14.6-38.6V820.1
			C266.4,783.3,288.8,740.6,316.4,724.7"/>
		<path id="path246" class="st19" d="M326.5,1922l2.3-39.1l1232.4-711.5c27.6-15.9,49.9-58.6,49.9-95.4V72l29.4-36.3l-43.1-29.8
			c-4.6-3.8-10.2-5.9-16.5-5.9c-6.1,0-12.7,1.9-19.7,6L316.4,724.7c-27.6,15.9-49.9,58.6-49.9,95.4v1032.2
			c0,18.4,5.6,31.8,14.6,38.6L326.5,1922"/>
		<path id="path248" class="st2" d="M358.8,1919.2l1244.8-718.7c27.6-15.9,49.9-58.6,49.9-95.4V72.9c0-36.8-22.4-53.7-49.9-37.8
			L358.8,753.8c-27.6,15.9-49.9,58.6-49.9,95.4v1032.2C308.9,1918.2,331.2,1935.1,358.8,1919.2"/>
		<path id="path250" class="st2" d="M358.8,1919.2l1244.8-718.7c27.6-15.9,49.9-58.6,49.9-95.4V72.9c0-36.8-22.4-53.7-49.9-37.8
			L358.8,753.8c-27.6,15.9-49.9,58.6-49.9,95.4v1032.2C308.9,1918.2,331.2,1935.1,358.8,1919.2"/>
		<path id="path252" class="st6" d="M358.8,753.8L1603.6,35.1c27.6-15.9,49.9,1,49.9,37.8v50.5L308.9,899.7v-50.5
			C308.9,812.5,331.2,769.8,358.8,753.8"/>
		<path id="path254" class="st2" d="M1623.4,29.2c17.7,0,30.1,16.4,30.1,43.8v1032.2c0,36.8-22.4,79.5-49.9,95.4L358.8,1919.2
			c-7,4.1-13.8,6-19.8,6c-17.7,0-30.1-16.4-30.1-43.8V849.2c0-36.8,22.4-79.5,49.9-95.4L1603.6,35.1
			C1610.6,31.1,1617.3,29.2,1623.4,29.2L1623.4,29.2z M1623.4,39.2L1623.4,39.2c-4.4,0-9.6,1.6-14.8,4.6L363.8,762.5
			c-24.4,14.1-44.9,53.8-44.9,86.8v1032.2c0,20.5,7.9,33.8,20.1,33.8c4.5,0,9.5-1.6,14.8-4.7l1244.8-718.7
			c24.4-14.1,44.9-53.8,44.9-86.8V72.9C1643.5,52.4,1635.6,39.2,1623.4,39.2"/>
		<path id="path256" class="st4" d="M1076.5,575.6c1.8,0,3.6-0.4,5.3-1.4l473.8-273.6c5.1-2.9,6.8-9.4,3.9-14.5
			c-2.9-5-9.4-6.8-14.5-3.9l-473.8,273.6c-5.1,2.9-6.8,9.4-3.9,14.5C1069.2,573.7,1072.8,575.6,1076.5,575.6"/>
		<path id="path258" class="st4" d="M409.8,960.5c1.8,0,3.6-0.5,5.3-1.4l351-202.6c5.1-2.9,6.8-9.4,3.9-14.5
			c-2.9-5.1-9.4-6.8-14.5-3.9l-351,202.6c-5.1,2.9-6.8,9.4-3.9,14.5C402.5,958.6,406.1,960.5,409.8,960.5"/>
		<path id="path260" class="st4" d="M836.9,713.9c1.8,0,3.6-0.4,5.3-1.4l142.6-82.3c5.1-2.9,6.8-9.4,3.9-14.5
			c-2.9-5.1-9.4-6.8-14.5-3.9l-142.6,82.3c-5.1,2.9-6.8,9.4-3.9,14.5C829.6,712,833.2,713.9,836.9,713.9"/>
		<path id="path262" class="st4" d="M1076.5,1239.3c1.8,0,3.6-0.5,5.3-1.4l473.8-273.6c5.1-2.9,6.8-9.4,3.9-14.5
			c-2.9-5.1-9.4-6.8-14.5-3.9l-473.8,273.6c-5.1,2.9-6.8,9.4-3.9,14.5C1069.2,1237.4,1072.8,1239.3,1076.5,1239.3"/>
		<path id="path264" class="st4" d="M409.8,1624.2c1.8,0,3.6-0.4,5.3-1.4l351-202.7c5.1-2.9,6.8-9.4,3.9-14.5
			c-2.9-5.1-9.4-6.8-14.5-3.9l-351,202.6c-5.1,2.9-6.8,9.4-3.9,14.5C402.5,1622.3,406.1,1624.2,409.8,1624.2"/>
		<path id="path266" class="st4" d="M836.9,1377.6c1.8,0,3.6-0.5,5.3-1.4l142.6-82.3c5.1-2.9,6.8-9.4,3.9-14.5
			c-2.9-5.1-9.4-6.8-14.5-3.9l-142.6,82.3c-5.1,2.9-6.8,9.4-3.9,14.5C829.6,1375.7,833.2,1377.6,836.9,1377.6"/>
		<path id="path268" class="st4" d="M1076.5,1395.3c1.8,0,3.6-0.5,5.3-1.4l473.8-273.6c5.1-2.9,6.8-9.4,3.9-14.5
			c-2.9-5.1-9.4-6.8-14.5-3.9l-473.8,273.6c-5.1,2.9-6.8,9.4-3.9,14.5C1069.2,1393.4,1072.8,1395.3,1076.5,1395.3"/>
		<path id="path270" class="st4" d="M559.1,1694c1.8,0,3.6-0.4,5.3-1.4L766,1576.2c5.1-2.9,6.8-9.4,3.9-14.5
			c-2.9-5.1-9.4-6.8-14.5-3.9l-201.6,116.4c-5.1,2.9-6.8,9.4-3.9,14.5C551.9,1692.1,555.5,1694,559.1,1694"/>
		<path id="path272" class="st4" d="M836.9,1533.7c1.8,0,3.6-0.4,5.3-1.4l142.6-82.3c5.1-2.9,6.8-9.4,3.9-14.5
			c-2.9-5.1-9.4-6.8-14.5-3.9l-142.6,82.3c-5.1,2.9-6.8,9.4-3.9,14.5C829.6,1531.8,833.2,1533.7,836.9,1533.7"/>
		<path id="path274" class="st4" d="M1312.8,521.6c1.8,0,3.6-0.4,5.3-1.4l237.5-137.2c5.1-2.9,6.8-9.4,3.9-14.5
			c-2.9-5.1-9.4-6.8-14.5-3.9l-237.5,137.1c-5.1,2.9-6.8,9.4-3.9,14.5C1305.6,519.7,1309.1,521.6,1312.8,521.6"/>
		<path id="path276" class="st4" d="M628.4,916.7c1.8,0,3.6-0.5,5.3-1.4l351-202.6c5.1-2.9,6.8-9.4,3.9-14.5
			c-2.9-5.1-9.4-6.8-14.5-3.9L623.1,897c-5.1,2.9-6.8,9.4-3.9,14.5C621.2,914.8,624.8,916.7,628.4,916.7"/>
		<path id="path278" class="st4" d="M1073.2,660c1.8,0,3.6-0.4,5.3-1.4l142.6-82.3c5.1-2.9,6.8-9.4,3.9-14.5
			c-2.9-5.1-9.4-6.8-14.5-3.9l-142.6,82.3c-5.1,2.9-6.8,9.4-3.9,14.5C1065.9,658.1,1069.5,660,1073.2,660"/>
		<path id="path280" class="st4" d="M1076.5,740.5c1.8,0,3.6-0.4,5.3-1.4l473.8-273.6c5.1-2.9,6.8-9.4,3.9-14.5
			c-2.9-5.1-9.4-6.8-14.5-3.9l-473.8,273.6c-5.1,2.9-6.8,9.4-3.9,14.5C1069.2,738.6,1072.8,740.5,1076.5,740.5"/>
		<path id="path282" class="st4" d="M667.3,976.8c1.8,0,3.6-0.4,5.3-1.4l93.5-54c5.1-2.9,6.8-9.4,3.9-14.5
			c-2.9-5.1-9.4-6.8-14.5-3.9L662,957c-5.1,2.9-6.8,9.4-3.9,14.5C660,974.9,663.6,976.8,667.3,976.8"/>
		<path id="path284" class="st4" d="M1266,713.6c1.8,0,3.6-0.5,5.3-1.4l93.5-54c5.1-2.9,6.8-9.4,3.9-14.5c-2.9-5.1-9.4-6.8-14.5-3.9
			l-93.5,54c-5.1,2.9-6.8,9.4-3.9,14.5C1258.8,711.7,1262.4,713.6,1266,713.6"/>
		<path id="path286" class="st4" d="M836.9,878.9c1.8,0,3.6-0.4,5.3-1.4l142.6-82.3c5.1-2.9,6.8-9.4,3.9-14.5
			c-2.9-5.1-9.4-6.8-14.5-3.9l-142.6,82.3c-5.1,2.9-6.8,9.4-3.9,14.5C829.6,877,833.2,878.9,836.9,878.9"/>
		<path id="path288" class="st4" d="M1398.4,637.1c1.8,0,3.6-0.4,5.3-1.4l151.9-87.7c5.1-2.9,6.8-9.4,3.9-14.5
			c-2.9-5.1-9.4-6.8-14.5-3.9l-151.9,87.7c-5.1,2.9-6.8,9.4-3.9,14.5C1391.2,635.2,1394.8,637.1,1398.4,637.1"/>
		<path id="path290" class="st4" d="M1073.2,824.9c1.8,0,3.6-0.4,5.3-1.4l142.6-82.3c5.1-2.9,6.8-9.4,3.9-14.5
			c-2.9-5.1-9.4-6.8-14.5-3.9l-142.6,82.3c-5.1,2.9-6.8,9.4-3.9,14.5C1065.9,823,1069.5,824.9,1073.2,824.9"/>
		<path id="path292" class="st4" d="M1076.5,911.5c1.8,0,3.6-0.5,5.3-1.4l473.8-273.6c5.1-2.9,6.8-9.4,3.9-14.5
			c-2.9-5.1-9.4-6.8-14.5-3.9l-473.8,273.6c-5.1,2.9-6.8,9.4-3.9,14.5C1069.2,909.6,1072.8,911.5,1076.5,911.5"/>
		<path id="path294" class="st4" d="M409.8,1296.4c1.8,0,3.6-0.5,5.3-1.4l351-202.6c5.1-2.9,6.8-9.4,3.9-14.5
			c-2.9-5.1-9.4-6.8-14.5-3.9l-351,202.6c-5.1,2.9-6.8,9.4-3.9,14.5C402.5,1294.5,406.1,1296.4,409.8,1296.4"/>
		<path id="path296" class="st4" d="M836.9,1049.8c1.8,0,3.6-0.4,5.3-1.4l142.6-82.3c5.1-2.9,6.8-9.4,3.9-14.5
			c-2.9-5.1-9.4-6.8-14.5-3.9l-142.6,82.3c-5.1,2.9-6.8,9.4-3.9,14.5C829.6,1047.9,833.2,1049.8,836.9,1049.8"/>
		<path id="path298" class="st4" d="M1312.8,857.5c1.8,0,3.6-0.4,5.3-1.4L1555.6,719c5.1-2.9,6.8-9.4,3.9-14.5
			c-2.9-5.1-9.4-6.8-14.5-3.9l-237.5,137.1c-5.1,2.9-6.8,9.4-3.9,14.5C1305.6,855.6,1309.1,857.5,1312.8,857.5"/>
		<path id="path300" class="st4" d="M628.4,1252.6c1.8,0,3.6-0.5,5.3-1.4l351-202.7c5.1-2.9,6.8-9.4,3.9-14.5
			c-2.9-5.1-9.4-6.8-14.5-3.9l-351,202.7c-5.1,2.9-6.8,9.4-3.9,14.5C621.2,1250.7,624.8,1252.6,628.4,1252.6"/>
		<path id="path302" class="st4" d="M1073.2,995.8c1.8,0,3.6-0.5,5.3-1.4l142.6-82.3c5.1-2.9,6.8-9.4,3.9-14.5
			c-2.9-5.1-9.4-6.8-14.5-3.9l-142.6,82.3c-5.1,2.9-6.8,9.4-3.9,14.5C1065.9,993.9,1069.5,995.8,1073.2,995.8"/>
		<path id="path304" class="st4" d="M1076.5,1076.4c1.8,0,3.6-0.4,5.3-1.4l473.8-273.6c5.1-2.9,6.8-9.4,3.9-14.5
			c-2.9-5.1-9.4-6.8-14.5-3.9l-473.8,273.6c-5.1,2.9-6.8,9.4-3.9,14.5C1069.2,1074.5,1072.8,1076.4,1076.5,1076.4"/>
		<path id="path306" class="st4" d="M667.3,1312.7c1.8,0,3.6-0.4,5.3-1.4l93.5-54c5.1-2.9,6.8-9.4,3.9-14.5
			c-2.9-5.1-9.4-6.8-14.5-3.9l-93.5,54c-5.1,2.9-6.8,9.4-3.9,14.5C660,1310.8,663.6,1312.7,667.3,1312.7"/>
		<path id="path308" class="st4" d="M1266,1049.4c1.8,0,3.6-0.5,5.3-1.4l93.5-54c5.1-2.9,6.8-9.4,3.9-14.5
			c-2.9-5.1-9.4-6.8-14.5-3.9l-93.5,54c-5.1,2.9-6.8,9.4-3.9,14.5C1258.8,1047.5,1262.4,1049.4,1266,1049.4"/>
		<path id="path310" class="st4" d="M836.9,1214.7c1.8,0,3.6-0.4,5.3-1.4l142.6-82.3c5.1-2.9,6.8-9.4,3.9-14.5
			c-2.9-5.1-9.4-6.8-14.5-3.9L831.5,1195c-5.1,2.9-6.8,9.4-3.9,14.5C829.6,1212.8,833.2,1214.7,836.9,1214.7"/>
		<path id="path312" class="st4" d="M1398.4,973c1.8,0,3.6-0.5,5.3-1.4l151.9-87.7c5.1-2.9,6.8-9.4,3.9-14.5
			c-2.9-5.1-9.4-6.8-14.5-3.9l-151.9,87.7c-5.1,2.9-6.8,9.4-3.9,14.5C1391.2,971.1,1394.8,973,1398.4,973"/>
		<path id="path314" class="st4" d="M1073.2,1160.8c1.8,0,3.6-0.5,5.3-1.4L1221,1077c5.1-2.9,6.8-9.4,3.9-14.5
			c-2.9-5.1-9.4-6.8-14.5-3.9l-142.6,82.3c-5.1,2.9-6.8,9.4-3.9,14.5C1065.9,1158.9,1069.5,1160.8,1073.2,1160.8"/>
		<path id="path316" class="st4" d="M1266,1207.5c1.8,0,3.6-0.5,5.3-1.4l93.5-54c5.1-2.9,6.8-9.4,3.9-14.5
			c-2.9-5.1-9.4-6.8-14.5-3.9l-93.5,54c-5.1,2.9-6.8,9.4-3.9,14.5C1258.8,1205.6,1262.4,1207.5,1266,1207.5"/>
		<path id="path318" class="st4" d="M1398.4,1131.1c1.8,0,3.6-0.4,5.3-1.4l151.9-87.7c5.1-2.9,6.8-9.4,3.9-14.5
			c-2.9-5.1-9.4-6.8-14.5-3.9l-151.9,87.7c-5.1,2.9-6.8,9.4-3.9,14.5C1391.2,1129.2,1394.8,1131.1,1398.4,1131.1"/>
		<path id="path320" class="st4" d="M1073.2,1318.9c1.8,0,3.6-0.4,5.3-1.4l142.6-82.3c5.1-2.9,6.8-9.4,3.9-14.5
			c-2.9-5.1-9.4-6.8-14.5-3.9l-142.6,82.3c-5.1,2.9-6.8,9.4-3.9,14.5C1065.9,1317,1069.5,1318.9,1073.2,1318.9"/>
		<path id="path322" class="st7" d="M1456.5,403.4v383.4c0,6.2,2.3,10.3,5.7,11.6l0.1,0l0,0l14.7,8l-0.1-13.1l2.1-394.2l-19.2-9.7
			C1457.7,394,1456.5,398.9,1456.5,403.4"/>
		<path id="path324" class="st5" d="M1459.8,389.6l19.2,9.7l464.9-272.5l11.1-6.5l-15.3-8.6l-0.4-0.3v0c-2.4-1.5-5.6-1.4-9.2,0.6
			L1470.3,377C1466.1,379.5,1462.3,384.2,1459.8,389.6"/>
		<path id="path326" class="st6" d="M1473.2,411.8v380.9c0,5.3,1.7,9.1,4.4,10.9l0.9,0.5c2.3,1.1,5.3,0.9,8.5-1l457-263.3
			c7.6-4.4,13.8-16.1,13.8-26.3V132.6c0-5.1-1.6-8.8-4.1-10.7l-1.4-0.8c-2.3-1-5.1-0.7-8.2,1.1l-457,263.3
			c-4.1,2.3-7.7,6.8-10.2,11.9C1474.5,402,1473.2,407.1,1473.2,411.8"/>
		<g id="g328" transform="scale(10)">
			<text transform="matrix(0.6495 -0.375 0 0.75 155.5847 65.8464)" class="st10 st20 st21">&lt;</text>
			<text transform="matrix(0.6495 -0.375 0 0.75 167.0027 59.2543)" class="st10 st20 st21">/</text>
			<text transform="matrix(0.6495 -0.375 0 0.75 174.9346 54.6741)" class="st10 st20 st21">&gt;</text>
		</g>
		<path id="path334" class="st5" d="M1951.2,119c1,0,1.9,0.2,2.8,0.6l1.4,0.8c2.6,1.9,4.1,5.6,4.1,10.8v383.2
			c0,10.2-6.2,22-13.8,26.4L1486,805.6c-1.9,1.1-3.8,1.7-5.5,1.7c-1.1,0-2.1-0.2-3.1-0.7l-0.9-0.5c-2.7-1.8-4.4-5.6-4.4-10.9V412
			c0-4.8,1.4-9.9,3.6-14.4c2.5-5.2,6.2-9.6,10.2-12l459.8-264.9C1947.7,119.5,1949.5,119,1951.2,119z M1951.2,121.6
			c-1.3,0-2.7,0.4-4.2,1.3l-459.8,264.9c-3.5,2-6.8,6-9.2,10.9c-2.1,4.4-3.3,9.1-3.3,13.3v383.2c0,4.2,1.2,7.4,3.1,8.7l0.8,0.4
			l2,0.4c1.3,0,2.7-0.4,4.2-1.3l459.8-264.9c6.8-3.9,12.6-15,12.6-24.2V131.1c0-4.1-1.1-7.3-3.1-8.7l-0.9-0.5L1951.2,121.6"/>
		<path id="path336" class="st4" d="M1530.5,131.4c0,10.9,7.7,15.3,17.1,9.9c9.4-5.5,17.1-18.7,17.1-29.6c0-10.9-7.7-15.3-17.1-9.9
			C1538.1,107.3,1530.5,120.5,1530.5,131.4"/>
		<path id="path338" class="st4" d="M1466.9,170.7c0,10.9,7.7,15.3,17.1,9.9c9.4-5.5,17.1-18.7,17.1-29.6c0-10.9-7.7-15.3-17.1-9.9
			C1474.5,146.5,1466.9,159.8,1466.9,170.7"/>
		<path id="path340" class="st4" d="M1403.3,210c0,10.9,7.7,15.3,17.1,9.9c9.4-5.5,17.1-18.7,17.1-29.6c0-10.9-7.7-15.3-17.1-9.9
			C1411,185.8,1403.3,199,1403.3,210"/>
	</g>
</g>
</svg>
